<svg width="119" height="116" viewBox="0 0 119 116" fill="none" xmlns="http://www.w3.org/2000/svg">
<rect y="2.05322" width="118.071" height="113.947" fill="white"/>
<path d="M48.59 96.6V90.84H51.71C53.7367 90.84 55.1767 90.4133 56.03 89.56C56.8833 88.76 57.31 87.3733 57.31 85.4V38.68H64.03V85.56C64.03 88.12 63.6033 90.2 62.75 91.8C61.8967 93.4533 60.6167 94.6533 58.91 95.4C57.2567 96.2 55.2033 96.6 52.75 96.6H48.59ZM60.75 30.12C59.4167 30.12 58.2967 29.6933 57.39 28.84C56.5367 27.9333 56.11 26.8133 56.11 25.48C56.11 24.1467 56.5367 23.08 57.39 22.28C58.2967 21.4267 59.4167 21 60.75 21C62.03 21 63.0967 21.4267 63.95 22.28C64.8567 23.08 65.31 24.1467 65.31 25.48C65.31 26.8133 64.8567 27.9333 63.95 28.84C63.0967 29.6933 62.03 30.12 60.75 30.12Z" fill="#FF7700"/>
</svg>
