<svg width="743" height="742" viewBox="0 0 743 742" fill="none" xmlns="http://www.w3.org/2000/svg">
<path fill-rule="evenodd" clip-rule="evenodd" d="M73.7798 1.5889C67.3252 5.94709 1.60734 58.1191 0.871697 59.4702C0.402184 60.3339 0.0105365 63.2531 7.7011e-05 65.9581C-0.0138689 69.7629 1.86302 74.2694 8.28861 85.8679C28.0593 121.555 38.5908 143.572 46.9874 166.768C53.9824 186.094 53.9882 184.817 46.8595 193.973C29.6003 216.141 17.6591 246.495 11.3788 284.167C9.16836 297.42 8.74999 304.371 8.76974 327.42C8.78253 342.698 9.45657 360.059 10.2887 366.553C19.2164 436.195 43.3068 499.46 82.9655 557.413C93.5633 572.898 120.94 605.479 135.372 619.781C205.641 689.419 296.74 731.666 394.615 740.004C476.829 747.006 556.223 729.14 618.252 689.674C657.362 664.791 695.677 623.539 719.686 580.465C727.352 566.714 738.201 542.974 740.803 534.261L742.582 528.302L734.06 508.187C726.271 489.802 725.073 487.731 720.135 484.106C714.744 480.149 714.691 480.14 696.418 480.298C686.345 480.386 665.813 480.848 650.792 481.324C611.127 482.584 568.61 479.407 537.482 472.857C462.418 457.064 401.87 426.307 345.725 375.448C300.427 334.414 270.656 298.012 230.644 234.736C216.111 211.752 201.63 191.687 191.788 180.893C177.239 164.936 158.31 152.842 143.888 150.287L138.548 149.341L132.151 133.338C123.664 112.11 107.744 63.5003 94.5337 18.4738C92.3174 10.9218 89.4295 3.66226 88.1151 2.33998C85.3782 -0.411702 77.3663 -0.831864 73.7798 1.5889ZM97.6715 195.259C105.911 221.694 126.789 273.666 140.556 302.017C176.439 375.909 219.102 433.698 268.024 474.677C357.632 549.734 476.055 579.585 590.36 555.928C613.147 551.212 646.965 540.401 675.127 528.83C690.118 522.671 689.582 523.65 670.648 537.007C641.526 557.55 597.889 575.502 557.82 583.419C528.895 589.134 522.796 589.654 484.603 589.656C436.077 589.657 419.094 587.276 378.847 574.83C310.872 553.808 253.671 515.429 205.643 458.617C174.93 422.288 154.752 387.869 130.344 330.166C106.976 274.918 98.8267 246.053 95.3495 206.191C93.3692 183.485 93.6249 182.28 97.6715 195.259Z" fill="#D9A826"/>
</svg>
